<svg id="visual" viewBox="0 0 960 540" width="960" height="540" xmlns="http://www.w3.org/2000/svg" xmlns:xlink="http://www.w3.org/1999/xlink" version="1.1"><rect x="0" y="0" width="960" height="540" fill="#c5ffa9"></rect><defs><linearGradient id="grad1_0" x1="43.8%" y1="100%" x2="100%" y2="0%"><stop offset="14.444444444444446%" stop-color="#c5ffa9" stop-opacity="1"></stop><stop offset="85.55555555555554%" stop-color="#c5ffa9" stop-opacity="1"></stop></linearGradient></defs><defs><linearGradient id="grad2_0" x1="0%" y1="100%" x2="56.3%" y2="0%"><stop offset="14.444444444444446%" stop-color="#c5ffa9" stop-opacity="1"></stop><stop offset="85.55555555555554%" stop-color="#c5ffa9" stop-opacity="1"></stop></linearGradient></defs><g transform="translate(960, 540)"><path d="M-513 0C-509.2 -70.7 -505.3 -141.4 -474 -196.3C-442.6 -251.2 -383.7 -290.3 -333.8 -333.8C-283.8 -377.2 -242.8 -424.9 -188.7 -455.5C-134.5 -486.1 -67.3 -499.5 0 -513L0 0Z" fill="#ff8c8c"></path></g><g transform="translate(0, 0)"><path d="M513 0C507.6 67.4 502.1 134.8 474 196.3C445.8 257.8 394.9 313.5 336.6 336.6C278.2 359.7 212.3 350.2 155 374.2C97.6 398.1 48.8 455.6 0 513L0 0Z" fill="#ff8c8c"></path></g></svg>