<svg id="visual" viewBox="0 0 960 540" width="960" height="540" xmlns="http://www.w3.org/2000/svg" xmlns:xlink="http://www.w3.org/1999/xlink" version="1.1"><path d="M0 233L22.8 234.7C45.7 236.3 91.3 239.7 137 255.3C182.7 271 228.3 299 274 312.2C319.7 325.3 365.3 323.7 411.2 302.8C457 282 503 242 548.8 233.5C594.7 225 640.3 248 686 254.8C731.7 261.7 777.3 252.3 823 255.3C868.7 258.3 914.3 273.7 937.2 281.3L960 289L960 0L937.2 0C914.3 0 868.7 0 823 0C777.3 0 731.7 0 686 0C640.3 0 594.7 0 548.8 0C503 0 457 0 411.2 0C365.3 0 319.7 0 274 0C228.3 0 182.7 0 137 0C91.3 0 45.7 0 22.8 0L0 0Z" fill="#acde9e"></path><path d="M0 70L22.8 88.2C45.7 106.3 91.3 142.7 137 161C182.7 179.3 228.3 179.7 274 174C319.7 168.3 365.3 156.7 411.2 153.3C457 150 503 155 548.8 152.2C594.7 149.3 640.3 138.7 686 127.5C731.7 116.3 777.3 104.7 823 93.8C868.7 83 914.3 73 937.2 68L960 63L960 0L937.2 0C914.3 0 868.7 0 823 0C777.3 0 731.7 0 686 0C640.3 0 594.7 0 548.8 0C503 0 457 0 411.2 0C365.3 0 319.7 0 274 0C228.3 0 182.7 0 137 0C91.3 0 45.7 0 22.8 0L0 0Z" fill="#ff6666"></path></svg>